<?xml version="1.0" encoding="utf-8"?>
<!-- Generator: Adobe Illustrator 18.0.0, SVG Export Plug-In . SVG Version: 6.00 Build 0)  -->
<!DOCTYPE svg PUBLIC "-//W3C//DTD SVG 1.1//EN" "http://www.w3.org/Graphics/SVG/1.1/DTD/svg11.dtd">
<svg version="1.1" id="圖層_1" xmlns="http://www.w3.org/2000/svg" xmlns:xlink="http://www.w3.org/1999/xlink" x="0px" y="0px"
	 viewBox="551.6 1007.1 597.8 597.8" enable-background="new 551.6 1007.1 597.8 597.8" xml:space="preserve">
<symbol  id="ic_x5F_place" viewBox="-12 -12 24 24">
	<g>
		<path fill="#FFFFFF" d="M0,10c-3.9,0-7-3.1-7-7c0-5.2,7-13,7-13S7-2.3,7,3C7,6.9,3.9,10,0,10z M0-0.2c-1.8,0-3.2,1.4-3.2,3.2
			S-1.8,6.2,0,6.2S3.2,4.8,3.2,3S1.8-0.2,0-0.2z"/>
	</g>
	<polygon fill="none" points="12,-12 -12,-12 -12,12 12,12 	"/>
</symbol>
<g id="圖層_2">
</g>
<g id="圖層_1_1_">
	
		<use xlink:href="#ic_x5F_place"  width="24" height="24" id="XMLID_2_" x="-12" y="-12" transform="matrix(24.9069 0 0 -24.9069 850.4808 1306.0325)" overflow="visible"/>
</g>
<g id="圖層_3" display="none">
	
		<text transform="matrix(1.0817 0 0 1 -3652.2329 2182.2615)" display="inline" fill="#00FFFF" font-family="'STHeitiTC-Medium'" font-size="482.8741">灰色色塊：rgb=77,77,77</text>
</g>
</svg>
