<?xml version="1.0" encoding="utf-8"?>
<!-- Generator: Adobe Illustrator 18.0.0, SVG Export Plug-In . SVG Version: 6.00 Build 0)  -->
<!DOCTYPE svg PUBLIC "-//W3C//DTD SVG 1.1//EN" "http://www.w3.org/Graphics/SVG/1.1/DTD/svg11.dtd">
<svg version="1.1" xmlns="http://www.w3.org/2000/svg" xmlns:xlink="http://www.w3.org/1999/xlink" x="0px" y="0px"
	 viewBox="0 0 225.3 217" enable-background="new 0 0 225.3 217" xml:space="preserve">
<g id="圖層_2">
</g>
<g id="圖層_1">
	<g>
		<path fill="#D9E021" d="M141.2,105c-0.2,15-8.7,28.5-21.1,28.5S99.3,120,99.1,105h-5.5c0.1,18,12,34,26.6,34
			c14.6,0,26.5-16,26.6-34H141.2z"/>
		<path fill="none" stroke="#D9E021" stroke-width="3" stroke-miterlimit="10" d="M110,54.9c0,0-12.5,1-15,9.7
			c-2.5,8.6,1.5,43.5,1.5,43.5"/>
		<path fill="#D9E021" d="M116.9,57.2h-5.4c-0.5,0-1-0.4-1-1v-3.4c0-0.5,0.4-1,1-1h5.4c0.5,0,1,0.4,1,1v3.4
			C117.9,56.7,117.5,57.2,116.9,57.2z"/>
		<path fill="none" stroke="#D9E021" stroke-width="3" stroke-miterlimit="10" d="M130.3,54.9c0,0,12.5,1,15,9.7
			c2.5,8.6-1.5,43.5-1.5,43.5"/>
		<path fill="#D9E021" d="M123.4,57.2h5.4c0.5,0,1-0.4,1-1v-3.4c0-0.5-0.4-1-1-1h-5.4c-0.5,0-1,0.4-1,1v3.4
			C122.4,56.7,122.9,57.2,123.4,57.2z"/>
		<path fill="none" stroke="#D9E021" stroke-width="3" stroke-miterlimit="10" d="M118.8,136.5v36c0,1.6-0.6,3.2-1.8,4.4
			c-2.3,2.4-6.6,5.1-11.7-0.1c-1.2-1.2-1.8-2.8-1.8-4.4v-19.8c0-1.9-0.8-3.7-2.3-4.9c-1.9-1.6-4.9-2.9-8.3-0.2
			c-1.5,1.2-2.4,3-2.4,4.9v15.9c0,2.3-1.2,4.5-3.3,5.5c-1.4,0.7-3.3,0.9-5.5-0.1c-2.1-1-3.5-3.2-3.5-5.5c-0.1-3-0.9-7.7-5.2-10.1"/>
		<circle fill="none" stroke="#D9E021" stroke-width="3" stroke-miterlimit="10" cx="71.2" cy="159.6" r="6.9"/>
		<circle fill="none" stroke="#D9E021" stroke-width="3" stroke-miterlimit="10" cx="71" cy="159.2" r="3.2"/>
	</g>
</g>
<g id="圖層_3" display="none">
	<g display="inline">
		<g>
			<line fill="none" stroke="#00FFFF" stroke-width="2" stroke-miterlimit="10" x1="669.3" y1="193" x2="-172.7" y2="193"/>
		</g>
	</g>
	
		<text transform="matrix(1.0817 0 0 1 -173.0071 170.517)" display="inline" fill="#00FFFF" font-family="'STHeitiTC-Medium'" font-size="36">主題字: 82pt</text>
	<g display="inline">
		<g>
			<polyline fill="none" stroke="#00FFFF" stroke-width="2" stroke-miterlimit="10" points="-172.7,54 1007.3,54 1007.3,-115 			"/>
		</g>
	</g>
	
		<text transform="matrix(1.0817 0 0 1 -173.007 33.9998)" display="inline" fill="#00FFFF" font-family="'STHeitiTC-Medium'" font-size="36">導航文字: 20pt</text>
</g>
</svg>
