<?xml version="1.0" encoding="utf-8"?>
<!-- Generator: Adobe Illustrator 18.0.0, SVG Export Plug-In . SVG Version: 6.00 Build 0)  -->
<!DOCTYPE svg PUBLIC "-//W3C//DTD SVG 1.1//EN" "http://www.w3.org/Graphics/SVG/1.1/DTD/svg11.dtd">
<svg version="1.1" id="圖層_1" xmlns="http://www.w3.org/2000/svg" xmlns:xlink="http://www.w3.org/1999/xlink" x="0px" y="0px"
	 viewBox="423 857.3 850.4 850.4" enable-background="new 423 857.3 850.4 850.4" xml:space="preserve">
<g id="圖層_2">
</g>
<g id="圖層_1_1_">
	<g>
		<g>
			<g>
				<path fill="#FFFFFF" d="M477.3,1291c0,30.9,3.9,61.8,11.6,91.3l1.3-1.3c-7.7-29.6-11.6-60.5-12.9-92.6
					C478.6,1289.7,477.3,1291,477.3,1291z"/>
				<path fill="#D9E021" d="M851.7,916.6c-205.8,0-373.1,166-374.4,371.8c0,32.2,5.1,63,12.9,92.6c5.1-5.1,10.3-10.3,15.4-15.4l0,0
					c1.3-1.3,1.3-1.3,2.6-2.6c18-16.7,34.7-33.4,52.7-48.9c2.6-2.6,5.1-3.9,7.7-6.4c14.2-11.6,28.3-23.2,42.5-33.4
					c2.6-1.3,3.9,0,6.4-1.3c3.9-2.6,9-6.4,12.9-6.4l0,0c135.1-90.1,263.7-129.9,320.3-73.3c57.9,57.9,21.9,189.1-78.5,325.5l0,0
					c-1.3,2.6-2.6,3.9-5.1,6.4c-1.3,2.6-3.9,3.9-5.1,6.4s-3.9,3.9-5.1,6.4c-1.3,1.3-2.6,3.9-3.9,5.1c-11.6,14.2-23.2,28.3-36,43.7
					c-1.3,2.6-3.9,3.9-5.1,5.1c-2.6,2.6-3.9,3.9-6.4,6.4c-1.3,1.3-2.6,2.6-3.9,3.9c-1.3,1.3-2.6,2.6-3.9,3.9
					c-1.3,1.3-3.9,3.9-5.1,5.1c-2.6,2.6-3.9,3.9-6.4,6.4c-2.6,2.6-5.1,5.1-6.4,6.4s-3.9,3.9-5.1,5.1c-5.1,5.1-11.6,11.6-16.7,16.7
					c30.9,7.7,63,12.9,95.2,12.9c205.8,0,373.1-166,374.4-371.8C1224.8,1082.6,1057.5,916.6,851.7,916.6z"/>
				<path fill="#D9E021" d="M872.3,1517.5c-16.7,46.3-50.2,84.9-92.6,108.1c2.6-2.6,5.1-5.1,6.4-6.4c2.6-2.6,3.9-3.9,6.4-6.4
					c1.3-1.3,3.9-3.9,5.1-5.1s2.6-2.6,3.9-3.9c1.3-1.3,2.6-2.6,3.9-3.9c2.6-2.6,3.9-3.9,6.4-6.4c1.3-2.6,3.9-3.9,5.1-6.4
					c12.9-14.2,24.4-28.3,36-43.7c1.3-1.3,2.6-3.9,3.9-5.1c1.3-2.6,3.9-5.1,5.1-6.4c1.3-2.6,3.9-5.1,5.1-6.4
					C868.4,1521.3,869.7,1520,872.3,1517.5L872.3,1517.5z"/>
				<path fill="#D9E021" d="M630.4,1260.2c-3.9,2.6-9,6.4-12.9,9c-2.6,1.3-3.9,2.6-6.4,3.9c-14.2,10.3-28.3,21.9-42.5,33.4
					c-2.6,2.6-5.1,3.9-7.7,6.4c-18,15.4-36,32.2-52.7,48.9c-1.3,1.3-1.3,1.3-2.6,2.6C530,1314.2,575.1,1275.6,630.4,1260.2z"/>
			</g>
			<path fill="#D9E021" d="M684.4,1255c-19.3,0-37.3-2.6-54,10.3l0,0c-3.9,0-9,2.6-12.9,6.4c-2.6,1.3-3.9,1.3-6.4,2.6
				c-14.2,10.3-28.3,21.9-42.5,33.4c-2.6,2.6-5.1,3.9-7.7,6.4c-18,15.4-36,33.4-52.7,51.5c-1.3,1.3-1.3,3.9-2.6,3.9l0,0
				c-5.1,0-9,18-11.6,28.3c36,117.1,127.4,208.4,243.2,245.7c14.2-3.9,28.3-10.3,41.2-16.7c2.6-2.6,5.1-5.1,6.4-7.7
				c2.6-2.6,3.9-3.9,6.4-6.4c1.3-1.3,3.9-3.9,5.1-5.1c1.3-1.3,2.6-2.6,3.9-3.9c1.3-1.3,2.6-2.6,3.9-3.9c2.6-2.6,3.9-3.9,6.4-6.4
				c1.3-2.6,3.9-3.9,5.1-6.4c12.9-14.2,24.4-28.3,36-43.7c1.3-1.3,2.6-3.9,3.9-5.1c1.3-2.6,3.9-5.1,5.1-6.4c1.3-2.6,3.9-5.1,5.1-6.4
				c1.3-2.6,2.6-3.9,5.1-6.4l0,0c7.7-20.6,11.6-41.2,11.6-65.6C883.8,1342.5,795.1,1255,684.4,1255z M710.2,1496.9
				c-37.3,0-68.2-30.9-68.2-68.2s30.9-68.2,68.2-68.2c37.3,0,68.2,30.9,68.2,68.2S748.8,1496.9,710.2,1496.9z"/>
		</g>
		<circle fill="none" cx="824.7" cy="1312.9" r="281.7"/>
	</g>
</g>
<g id="圖層_3" display="none">
	<g display="inline">
		<g>
			<polyline fill="none" stroke="#00FFFF" stroke-width="2" stroke-miterlimit="10" points="-3419.6,2385.9 5637.6,2385.9 
				5637.6,1356.6 			"/>
		</g>
	</g>
	<g display="inline">
		<g>
			<polyline fill="none" stroke="#00FFFF" stroke-width="2" stroke-miterlimit="10" points="-3419.6,3518 11761.4,3518 
				11761.4,1343.8 			"/>
		</g>
	</g>
	
		<text transform="matrix(1.0817 0 0 1 -3423.4229 2249.6133)" display="inline" fill="#00FFFF" font-family="'STHeitiTC-Medium'" font-size="463.1501">導航列大小：1280px*104px</text>
</g>
</svg>
